<svg id="Calque_1" data-name="Calque 1" xmlns="http://www.w3.org/2000/svg" viewBox="0 0 1000 160"><defs><style>.cls-1{fill:#858585;}.cls-2{fill:#2f397d;}</style></defs><title>LOGO_SANS_S</title><path class="cls-1" d="M709.82,103q-20.57,0-33.21,11.36t-12.63,26q0,15.51,14.38,15.51,9.81,0,17.6-10.31l.29.3-2,9.72,17.57-3.83.59-2.57q-6.75.89-6.76-5.21a21.28,21.28,0,0,1,.45-3.95l8-37Zm-12.57,38.09q-.15.73-4.75,4.74a14.72,14.72,0,0,1-9.83,4q-10.3,0-10.31-12a30.12,30.12,0,0,1,7.72-20.88q7.73-8.61,20-8.61a39.83,39.83,0,0,1,4,.22l-6.87,32.58Zm64.19-31.25a12.11,12.11,0,0,1,5.25-2.65l.44-2.57H750.74l-.44,2.57c3.78.1,5.66,1.3,5.66,3.61,0,.84-.78,2.65-2.35,5.45l-14.78,26.08h-.3L736.73,119c-.2-2.55-.3-4.15-.3-4.79q0-7.14,6.74-7l.44-2.57H722.14l-.52,2.57c2.41.1,4,.7,4.67,1.8s1.21,3.53,1.51,7.26l3.66,39.32h2.66l22-37.7q3.82-6.48,5.34-8ZM777.61,114q-9.66,11-9.66,24.37,0,7.65,4.37,12.57a14.37,14.37,0,0,0,11.28,4.93q12.43,0,21.48-11.95t9-23.93a17.24,17.24,0,0,0-4.56-11.91A13.87,13.87,0,0,0,799,103q-11.7,0-21.36,11Zm1.91,33.72c-1.83-2.5-2.76-5.85-2.76-10.06a39.53,39.53,0,0,1,5.59-21.21q5.6-9,12.65-9a8.92,8.92,0,0,1,7.35,3.86,15.18,15.18,0,0,1,2.95,9.5q0,12.55-5.56,21.61t-12.83,9.07a8.73,8.73,0,0,1-7.39-3.74Zm81.5-45a3.11,3.11,0,0,1-2.57,1.18,17.26,17.26,0,0,1-2.39-.44,25.09,25.09,0,0,0-5.25-.44q-10.08,0-19.23,11.39t-9.16,23.53q0,8,4.23,12.94a13.56,13.56,0,0,0,10.85,5q10.21,0,21.4-10.84l-1.63-1.88q-7.63,6.69-15.36,6.69-10.59,0-10.59-13.28a37.54,37.54,0,0,1,5.48-20.44q5.48-8.7,12.61-8.7A9.6,9.6,0,0,1,856.5,110a9,9,0,0,1,2.4,7.11H861l1.62-14.41Zm53.2.3q-20.58,0-33.21,11.36t-12.64,26q0,15.51,14.38,15.51,9.84,0,17.61-10.31l.29.3-2.06,9.72,17.58-3.83.59-2.57Q910,150,910,144a22,22,0,0,1,.44-3.95l8-37Zm-12.57,38.09q-.15.73-4.75,4.74a14.74,14.74,0,0,1-9.83,4q-10.32,0-10.31-12a30.12,30.12,0,0,1,7.72-20.88q7.72-8.61,20-8.61a39.83,39.83,0,0,1,4,.22l-6.87,32.58Zm43.4-36.47,2.78-13.09h-2.65Q938.87,105,927,106.15l-.43,2.57h9L929,139.09a65.25,65.25,0,0,0-1.61,10.44q0,6.32,6.91,6.32,10,0,23.52-12.17L956,141.81q-9.59,8-15.69,8c-2.5,0-3.76-1.42-3.76-4.26a11.77,11.77,0,0,1,.3-2.43l7.3-34.41H958l.74-4.11Z"/><path class="cls-2" d="M237.16,54.49v70.95a29.16,29.16,0,0,0,2.48,11.89,30.87,30.87,0,0,0,6.75,9.79,32.72,32.72,0,0,0,10,6.66,30.69,30.69,0,0,0,12.36,2.47,29.11,29.11,0,0,0,9.22-1.62,43.92,43.92,0,0,0,9.42-4.46,52.67,52.67,0,0,0,8.46-6.57,39.08,39.08,0,0,0,6.56-8.08v18.64h19.79V54.49H302.4v72.66a31.72,31.72,0,0,1-4.66,6.37,35,35,0,0,1-6,5.14,30.74,30.74,0,0,1-6.56,3.42,18.15,18.15,0,0,1-6.37,1.24,24.29,24.29,0,0,1-8.47-1.43,25.4,25.4,0,0,1-6.94-3.8,17.39,17.39,0,0,1-4.75-5.61,14.83,14.83,0,0,1-1.71-7V54.49ZM375.63,3.33h-5.71L355.85,9V154.16h19.78V3.33Zm36.23,3a9,9,0,0,0-3.33,6.94,9.18,9.18,0,0,0,3.33,7.13,12.42,12.42,0,0,0,16.07,0,9.09,9.09,0,0,0,3.43-7.13,8.92,8.92,0,0,0-3.43-6.94,12.42,12.42,0,0,0-16.07,0Zm-1.62,147.88h19.59V52.4h-5.7l-13.89,5.71v96.05ZM480.43,145q-6.48-4.36-13.7-14.64l-8.18,7.41a52.5,52.5,0,0,0,9.23,9.51,42.12,42.12,0,0,0,9.32,5.61,36.65,36.65,0,0,0,9.32,2.67,64.25,64.25,0,0,0,9,.66A54.85,54.85,0,0,0,512.1,154,33.68,33.68,0,0,0,524,147.6a26.38,26.38,0,0,0,7.14-9.61,29.54,29.54,0,0,0,2.38-11.79q0-8.37-4.29-14a39.41,39.41,0,0,0-10.74-9.61,93.17,93.17,0,0,0-14-7q-7.51-3-14-6.18a43.41,43.41,0,0,1-10.75-7.14,13.2,13.2,0,0,1-4.28-10.08q0-5.5,5.23-9.32t13.79-3.8a27.15,27.15,0,0,1,15,4.56q7,4.58,12.55,13.7l7.23-6.47a69.81,69.81,0,0,0-8.66-9.51,35.79,35.79,0,0,0-8.27-5.61,30.39,30.39,0,0,0-8.46-2.66,59.42,59.42,0,0,0-9.23-.67A43.18,43.18,0,0,0,481,54.49a33,33,0,0,0-10.75,5.8,27.42,27.42,0,0,0-7,8.85,24.33,24.33,0,0,0-2.56,11q0,8.56,4,14.17a38.67,38.67,0,0,0,9.89,9.61,79.73,79.73,0,0,0,12.84,7q6.94,3,12.84,6.28a43.22,43.22,0,0,1,9.89,7.23,13.66,13.66,0,0,1,4,10.08q0,5.7-5.23,10.27t-13.41,4.57a26.14,26.14,0,0,1-15-4.38ZM598.35,6.75V156.44h11.23V6.75Z"/><path class="cls-1" d="M185.63,37.05v3.16h3.8c3.59,0,6,.8,7.15,2.41s1.77,4.68,1.77,9.19V93.14Q186.19,85,175.69,85q-13.09,0-22.34,10a34.31,34.31,0,0,0-9.24,24.19q0,15.14,10.54,25.08t28.65,9.93h39.2V151q-6.42,0-8.83-2.14t-2.41-7.71V34.73H208.1l-22.47,2.32Zm10.21,111.63c-1.67,1.61-4.4,2.42-8.17,2.42q-13.93,0-21.69-9.57t-7.75-25.26q0-12.17,5.66-19.74A17.72,17.72,0,0,1,178.75,89a20.84,20.84,0,0,1,10.45,3,29.65,29.65,0,0,1,9.15,8.32v40.58q0,5.38-2.51,7.8Z"/><path class="cls-2" d="M43.35,54.49V30.72a26.81,26.81,0,0,1,1-7.42,23.37,23.37,0,0,1,2.86-6.37,15.92,15.92,0,0,1,4.28-4.47A9.44,9.44,0,0,1,57,10.75a10.81,10.81,0,0,1,6.09,1.42,9.33,9.33,0,0,1,3.14,3.52A25.45,25.45,0,0,1,68,20.26a23.67,23.67,0,0,0,1.71,4.56,9.82,9.82,0,0,0,3,3.52,9.11,9.11,0,0,0,5.52,1.43,10.59,10.59,0,0,0,7-2.57,8.61,8.61,0,0,0,3-6.94q0-7-7.14-12T60.66,3.33a35.12,35.12,0,0,0-14.55,3,37,37,0,0,0-11.8,8.37,38.77,38.77,0,0,0-7.89,12.55A41.65,41.65,0,0,0,23.57,42.7V54.49H2.65v8.37H23.57v91.3H43.35V62.86H70V54.49ZM98.41,6.28a9,9,0,0,0-3.33,6.94,9.18,9.18,0,0,0,3.33,7.13,12.42,12.42,0,0,0,16.07,0,9.06,9.06,0,0,0,3.43-7.13,8.89,8.89,0,0,0-3.43-6.94,12.42,12.42,0,0,0-16.07,0ZM96.8,154.16h19.59V52.4h-5.71L96.8,58.11v96.05Z"/></svg>