<svg id="Calque_1" data-name="Calque 1" xmlns="http://www.w3.org/2000/svg" xmlns:xlink="http://www.w3.org/1999/xlink" viewBox="0 0 50 50"><defs><style>.cls-1{fill:none;}.cls-2{fill:#fff;}.cls-3{clip-path:url(#clip-path);}.cls-4{fill:#30377f;}</style><clipPath id="clip-path"><path class="cls-1" d="M0,0H50a0,0,0,0,1,0,0V50a0,0,0,0,1,0,0H14.23A14.23,14.23,0,0,1,0,35.77V0A0,0,0,0,1,0,0Z"/></clipPath></defs><title>VELO</title><rect class="cls-2" x="1.5" y="1.5" width="47" height="47"/><path class="cls-2" d="M47,3V47H3V3H47m3-3H0V50H50V0Z"/><g class="cls-3"><path class="cls-4" d="M4.06,31.33a10.44,10.44,0,1,0,15.36-9.2L21.12,18l11,13.68a1.09,1.09,0,0,0,.51.55v4.35a.5.5,0,0,0,.5.5h1.55a.5.5,0,0,0,0-1h-1V32.3h6.65A10.45,10.45,0,1,0,46.12,22l-3.69-5.78,1.1-2,1,.14h.14a1.1,1.1,0,0,0,1.08-.87l.2-.93a1.11,1.11,0,0,0-.22-.93,1.14,1.14,0,0,0-.86-.41H37.58a1.11,1.11,0,0,0-.15,2.2l3.76.49-.7,1.32H22.25l1.19-2.94H27.7a1.1,1.1,0,1,0,0-2.2h-5a1.1,1.1,0,0,0-1,.69L17.38,21.3a10.43,10.43,0,0,0-13.32,10Zm38.48,1h8.18a1.1,1.1,0,0,0,.92-1.69l-4.32-6.78a8.24,8.24,0,1,1-4.78,8.47ZM45.45,25l3.26,5.1H42.57A8.27,8.27,0,0,1,45.45,25ZM35,30.1l6.26-11.69,3,4.73a10.44,10.44,0,0,0-3.91,7ZM23.47,17.36H39.31L33.67,27.87v-2a.5.5,0,0,0-.5-.5H31.62a.5.5,0,0,0-.5.5.51.51,0,0,0,.5.5h1.05v2.39Zm-17.21,14a8.24,8.24,0,0,1,10.29-8l-3.07,7.57a1.1,1.1,0,0,0,.6,1.43,1,1,0,0,0,.42.08,1.12,1.12,0,0,0,1-.68l3.07-7.56A8.24,8.24,0,1,1,6.26,31.33Z"/></g></svg>