<svg id="Calque_1" data-name="Calque 1" xmlns="http://www.w3.org/2000/svg" viewBox="0 0 50 50"><defs><style>.cls-1{fill:#fff;}.cls-2{fill:#30377f;}</style></defs><title>VOITURE</title><rect class="cls-1" x="1.5" y="1.5" width="47" height="47"/><path class="cls-1" d="M47,3V47H3V3H47m3-3H0V50H50V0Z"/><path class="cls-2" d="M37,27.54c-2.09,1.75-5.09,2.62-9,2.62H20.55V43H13.12V7.25H28.48A12.36,12.36,0,0,1,37,10c2.11,1.84,3.16,4.7,3.16,8.56Q40.11,24.92,37,27.54ZM31.26,14.65a6,6,0,0,0-4-1.19H20.55V24h6.74a5.68,5.68,0,0,0,4-1.29,5.25,5.25,0,0,0,1.42-4.08C32.68,16.77,32.21,15.44,31.26,14.65Z"/></svg>