<svg id="Calque_1" data-name="Calque 1" xmlns="http://www.w3.org/2000/svg" viewBox="0 0 50 50"><defs><style>.cls-1{fill:#fff;}.cls-2{fill:#30377f;}</style></defs><title>TRANSPORTS_COMMUNS</title><rect class="cls-1" x="1.5" y="1.5" width="47" height="47"/><path class="cls-1" d="M47,3V47H3V3H47m3-3H0V50H50V0Z"/><g id="g3390"><path class="cls-2" d="M24.83,6.24h0Z"/><path class="cls-2" d="M38.77,11.76C38.36,9.7,37,8.87,35.06,8.05A33.41,33.41,0,0,0,25,6.24,33.34,33.34,0,0,0,14.91,8.05c-2,.82-3.3,1.65-3.71,3.71L9.71,23.19V38.93h2.56V41.4a2.2,2.2,0,1,0,4.4,0V38.93H33.29V41.4a2.21,2.21,0,1,0,4.41,0V38.93h2.55V23.19ZM18.7,9.12H31.27a.93.93,0,0,1,0,1.86H18.7A.93.93,0,0,1,18.7,9.12ZM14.47,34a2.12,2.12,0,1,1,2.12-2.12A2.12,2.12,0,0,1,14.47,34Zm10.36-9.61H13.62c-1.09,0-1.32-.79-1.22-1.58l1.16-8.29c.16-1,.5-1.67,1.8-1.67H34.6c1.31,0,1.65.66,1.81,1.67l1.15,8.29c.11.79-.12,1.58-1.22,1.58ZM35.49,34a2.12,2.12,0,1,1,2.12-2.12A2.11,2.11,0,0,1,35.49,34Z"/></g></svg>